<svg version="1.1" xmlns="http://www.w3.org/2000/svg" xmlns:xlink="http://www.w3.org/1999/xlink" width="32px" height="32px" viewBox="0,0,256,256"><g fill="#ffffff" fill-rule="nonzero" stroke="none" stroke-width="1" stroke-linecap="butt" stroke-linejoin="miter" stroke-miterlimit="10" stroke-dasharray="" stroke-dashoffset="0" font-family="none" font-weight="none" font-size="none" text-anchor="none" style="mix-blend-mode: normal"><g transform="scale(8,8)"><g id="_24_check-done-1"><path d="M12,22.59v0c-0.53304,0.00042 -1.0442,-0.21196 -1.42,-0.59l-3.29,-3.29l1.42,-1.42l3.29,3.3l5.29,-5.3l1.42,1.42l-5.3,5.29c-0.37335,0.37559 -0.88042,0.58777 -1.41,0.59z"></path><path d="M20,29h-14c-1.65685,0 -3,-1.34315 -3,-3v-14c0,-1.65685 1.34315,-3 3,-3h14c1.65685,0 3,1.34315 3,3v14c0,1.65685 -1.34315,3 -3,3zM6,11c-0.55228,0 -1,0.44772 -1,1v14c0,0.55228 0.44772,1 1,1h14c0.55228,0 1,-0.44772 1,-1v-14c0,-0.55228 -0.44772,-1 -1,-1z"></path><path d="M26,23h-4v-2h4c0.55228,0 1,-0.44772 1,-1v-14c0,-0.55228 -0.44772,-1 -1,-1h-14c-0.55228,0 -1,0.44772 -1,1v4h-2v-4c0,-1.65685 1.34315,-3 3,-3h14c1.65685,0 3,1.34315 3,3v14c0,1.65685 -1.34315,3 -3,3z"></path></g></g></g></svg>