<svg version="1.1" xmlns="http://www.w3.org/2000/svg" xmlns:xlink="http://www.w3.org/1999/xlink" width="32px" height="32px" viewBox="0,0,256,256"><g fill="#ffffff" fill-rule="nonzero" stroke="none" stroke-width="1" stroke-linecap="butt" stroke-linejoin="miter" stroke-miterlimit="10" stroke-dasharray="" stroke-dashoffset="0" font-family="none" font-weight="none" font-size="none" text-anchor="none" style="mix-blend-mode: normal"><g transform="translate(0.00595,-0.10248) scale(8,8)"><g id="_57_face-meh"><path d="M10,23c-0.2658,0.00154 -0.52128,-0.10281 -0.71,-0.29c-0.24464,-0.23459 -0.3538,-0.57712 -0.29,-0.91l0.67,-3.32c0.09108,-0.48884 0.32816,-0.93861 0.68,-1.29l13.3,-13.27c1.23591,-1.19251 3.19409,-1.19251 4.43,0c0.58806,0.58713 0.91851,1.38401 0.91851,2.215c0,0.83099 -0.33045,1.62787 -0.91851,2.215l-13.27,13.28c-0.35139,0.35184 -0.80116,0.58892 -1.29,0.68l-3.32,0.69zM25.86,5c-0.29968,0.00057 -0.58707,0.11913 -0.8,0.33l-13.27,13.28c-0.07458,0.06845 -0.12391,0.16005 -0.14,0.26l-0.37,1.85l1.85,-0.37c0.09995,-0.01609 0.19155,-0.06542 0.26,-0.14l13.28,-13.27c0.21087,-0.21293 0.32943,-0.50032 0.33,-0.8c0.00269,-0.30316 -0.11655,-0.5947 -0.33092,-0.80908c-0.21438,-0.21438 -0.50591,-0.33362 -0.80908,-0.33092z"></path><path d="M22,29h-16c-1.65685,0 -3,-1.34315 -3,-3v-16c0,-1.65685 1.34315,-3 3,-3h10v2h-10c-0.55228,0 -1,0.44772 -1,1v16c0,0.55228 0.44772,1 1,1h16c0.55228,0 1,-0.44772 1,-1v-10h2v10c0,1.65685 -1.34315,3 -3,3z"></path></g></g></g></svg>