<svg version="1.1" xmlns="http://www.w3.org/2000/svg" xmlns:xlink="http://www.w3.org/1999/xlink" width="32px" height="32px" viewBox="0,0,256,256"><g fill="#ffffff" fill-rule="nonzero" stroke="none" stroke-width="1" stroke-linecap="butt" stroke-linejoin="miter" stroke-miterlimit="10" stroke-dasharray="" stroke-dashoffset="0" font-family="none" font-weight="none" font-size="none" text-anchor="none" style="mix-blend-mode: normal"><g transform="translate(-0.00127,0) scale(8,8)"><g id="_133_save-02"><path d="M26,29h-20c-1.65685,0 -3,-1.34315 -3,-3v-20c0,-1.65685 1.34315,-3 3,-3h14.26c0.71503,-0.00006 1.40657,0.25528 1.95,0.72l5.79,4.92c0.64784,0.57928 1.01264,1.41103 1,2.28v15.08c0,1.65685 -1.34315,3 -3,3zM6,5c-0.55228,0 -1,0.44772 -1,1v20c0,0.55228 0.44772,1 1,1h20c0.55228,0 1,-0.44772 1,-1v-15.08c0.00002,-0.29231 -0.12786,-0.57 -0.35,-0.76l-5.74,-4.92c-0.18114,-0.15491 -0.41166,-0.24002 -0.65,-0.24z"></path><path d="M18,10h-8c-1.10457,0 -2,-0.89543 -2,-2v-4c0,-0.55228 0.44772,-1 1,-1h10c0.55228,0 1,0.44772 1,1v4c0,1.10457 -0.89543,2 -2,2zM10,5v3h8v-3z"></path><path d="M23,29h-14c-0.55228,0 -1,-0.44772 -1,-1v-11c0,-1.10457 0.89543,-2 2,-2h12c1.10457,0 2,0.89543 2,2v11c0,0.55228 -0.44772,1 -1,1zM10,27h12v-10h-12z"></path></g></g></g></svg>